<?xml version="1.0" encoding="UTF-8" standalone="no"?>
<!-- Created with Inkscape (http://www.inkscape.org/) -->

<svg
   width="74.33429mm"
   height="30.162495mm"
   viewBox="0 0 74.33429 30.162495"
   version="1.1"
   id="svg5"
   xmlns:inkscape="http://www.inkscape.org/namespaces/inkscape"
   xmlns:sodipodi="http://sodipodi.sourceforge.net/DTD/sodipodi-0.dtd"
   xmlns:xlink="http://www.w3.org/1999/xlink"
   xmlns="http://www.w3.org/2000/svg"
   xmlns:svg="http://www.w3.org/2000/svg">
  <sodipodi:namedview
     id="namedview7"
     pagecolor="#ffffff"
     bordercolor="#666666"
     borderopacity="1.0"
     inkscape:showpageshadow="2"
     inkscape:pageopacity="0.0"
     inkscape:pagecheckerboard="0"
     inkscape:deskcolor="#d1d1d1"
     inkscape:document-units="mm"
     showgrid="false" />
  <defs
     id="defs2">
    <path
       id="SVGID_1_"
       transform="rotate(-135.2127,22.2272,23.47)"
       d="m 8.4598,9.7025 h 27.535 v 27.535 H 8.4598 Z" />
    <path
       id="SVGID_3_"
       transform="rotate(-135.2127,75.4332,23.2399)"
       d="M 67.3578,15.1645 H 83.5087 V 31.3154 H 67.3578 Z" />
  </defs>
  <g
     inkscape:label="Layer 1"
     inkscape:groupmode="layer"
     id="layer1"
     transform="translate(-62.978309,-130.71875)">
    <style
       id="style132">.st0{fill:#fff}.st2,.st3{clip-path:url(#SVGID_2_);fill:#73cbcb}.st3{fill:#72cbca}.st5,.st57,.st59,.st63,.st8{clip-path:url(#SVGID_2_);fill:#70caca}.st57,.st59,.st63,.st8{fill:#6dc9c9}.st57,.st59,.st63{fill:#00b5b2}.st59,.st63{fill:#00b3b0}.st63{fill:#00b0ad}.st120,.st121,.st70{clip-path:url(#SVGID_4_);fill:#6fcac9}.st120,.st121{fill:#00bab8}.st121{fill:#00b9b7}.st123,.st126,.st128,.st129{clip-path:url(#SVGID_4_);fill:#00b8b6}.st126,.st128,.st129{fill:#00b7b4}.st128,.st129{fill:#00b6b3}.st129{fill:#00b5b2}</style>
    <path
       class="st0"
       d="m 71.207089,156.83286 c 0.535887,0.72094 1.233884,1.29863 2.093436,1.7331 0.859711,0.43418 1.816365,0.65156 2.870041,0.65156 0.92419,0 1.709738,-0.13427 2.356988,-0.402 0.646933,-0.26829 1.168956,-0.63339 1.566651,-1.09527 0.397404,-0.46244 0.683736,-1.00293 0.859684,-1.62232 0.175419,-0.61939 0.263393,-1.28019 0.263393,-1.98237 v -2.32928 h -0.05538 c -0.591847,0.88715 -1.312916,1.51601 -2.162969,1.88558 -0.85045,0.36983 -1.746938,0.55448 -2.689754,0.55448 -0.942764,0 -1.825678,-0.16645 -2.64803,-0.49908 -0.822933,-0.33292 -1.539107,-0.79031 -2.149131,-1.3725 -0.609994,-0.58245 -1.0909,-1.27989 -1.44187,-2.09373 -0.351367,-0.81325 -0.526918,-1.69142 -0.526918,-2.63419 0,-0.94276 0.16645,-1.82068 0.499216,-2.63437 0.332634,-0.81325 0.790178,-1.52509 1.3725,-2.13511 0.582347,-0.61003 1.275556,-1.08575 2.07973,-1.42804 0.804175,-0.34184 1.686825,-0.51308 2.648215,-0.51308 0.388144,0 0.799412,0.0374 1.233858,0.11094 0.434181,0.0741 0.868812,0.20365 1.303258,0.3883 0.434181,0.18492 0.86405,0.43921 1.28942,0.76248 0.42508,0.32369 0.822326,0.7348 1.192478,1.23402 h 0.05538 v -2.16297 h 1.830202 v 12.86658 c 0,0.7022 -0.088,1.45082 -0.263525,2.24589 -0.175842,0.79454 -0.51771,1.52527 -1.025895,2.19051 -0.508741,0.66556 -1.21584,1.22031 -2.121271,1.66402 -0.906012,0.44341 -2.089229,0.66524 -3.549438,0.66524 -1.294183,0 -2.449724,-0.21262 -3.466068,-0.63757 -1.016926,-0.42553 -1.941116,-1.08156 -2.772992,-1.96895 z m 0.332634,-9.26142 c 0,0.684 0.124778,1.32662 0.374465,1.92696 0.249555,0.60095 0.591397,1.128 1.025869,1.58065 0.434181,0.45323 0.94279,0.81383 1.525111,1.08156 0.582322,0.26802 1.215417,0.40201 1.899576,0.40201 0.665401,0 1.298496,-0.12002 1.899417,-0.36063 0.600499,-0.24 1.132179,-0.5774 1.594353,-1.01187 0.461857,-0.43418 0.818012,-0.95679 1.0677,-1.56694 0.249528,-0.60987 0.364781,-1.2936 0.346604,-2.05174 0,-0.68387 -0.110913,-1.32636 -0.332767,-1.92725 -0.221853,-0.60053 -0.545544,-1.12745 -0.970624,-1.58065 -0.42537,-0.45278 -0.942789,-0.81325 -1.552813,-1.08141 -0.609997,-0.26775 -1.294156,-0.402 -2.05187,-0.402 -0.684159,0 -1.317254,0.13427 -1.899576,0.402 -0.582321,0.26816 -1.09093,0.62863 -1.525111,1.08141 -0.434446,0.45323 -0.776314,0.98012 -1.025869,1.58062 -0.249687,0.60095 -0.374465,1.24341 -0.374465,1.92728 z m 18.966683,6.6549 H 88.509913 V 134.594 h 6.044882 c 1.996493,0 3.572405,0.43457 4.727919,1.30323 1.155146,0.86921 1.733126,2.18157 1.733126,3.93761 0,1.36829 -0.42984,2.51909 -1.289419,3.45236 -0.859685,0.93371 -2.103094,1.47434 -3.729594,1.62205 l 5.656873,9.31709 h -2.440359 l -5.379482,-9.12294 h -3.327453 z m 0,-10.95311 h 3.549306 c 0.887412,0 1.640364,-0.0922 2.259885,-0.27726 0.619258,-0.18449 1.113579,-0.42984 1.483572,-0.73477 0.36957,-0.30507 0.637858,-0.66556 0.804175,-1.08141 0.166317,-0.416 0.249528,-0.86405 0.249528,-1.34495 0,-0.46189 -0.08321,-0.90125 -0.249528,-1.3171 -0.166317,-0.416 -0.434605,-0.78081 -0.804175,-1.0954 -0.369993,-0.31403 -0.864314,-0.5588 -1.483572,-0.73478 -0.619521,-0.17541 -1.372499,-0.26339 -2.259885,-0.26339 h -3.549306 z m 14.585234,-8.67926 h 5.71241 c 1.99636,0 3.57224,0.4346 4.72765,1.30326 1.15512,0.86921 1.7331,2.18157 1.7331,3.93761 0,1.75646 -0.57798,3.07358 -1.7331,3.95147 -1.15543,0.87815 -2.73129,1.31709 -4.72765,1.31709 h -3.71578 v 9.12294 h -1.99666 V 134.594 Z m 1.99665,8.67926 h 3.21665 c 0.88715,0 1.64023,-0.0922 2.25991,-0.27726 0.6191,-0.18449 1.11345,-0.42984 1.48355,-0.73477 0.36957,-0.30507 0.63759,-0.66556 0.80404,-1.08141 0.16645,-0.416 0.24955,-0.86405 0.24955,-1.34495 0,-0.46189 -0.0831,-0.90125 -0.24955,-1.3171 -0.16645,-0.416 -0.43447,-0.78081 -0.80404,-1.0954 -0.3701,-0.31403 -0.86445,-0.5588 -1.48355,-0.73478 -0.61965,-0.17541 -1.37279,-0.26339 -2.25991,-0.26339 h -3.21665 z m 30.22431,7.84751 c -0.33263,0.49909 -0.74414,0.9705 -1.23375,1.4142 -0.49012,0.44368 -1.04934,0.82751 -1.6777,1.15062 -0.62862,0.32369 -1.30815,0.57772 -2.03803,0.76264 -0.73046,0.18462 -1.50231,0.27723 -2.31558,0.27723 -1.46034,0 -2.81438,-0.25903 -4.0621,-0.77632 -1.24801,-0.51728 -2.32926,-1.23401 -3.24437,-2.14913 -0.91509,-0.91509 -1.63182,-2.00083 -2.14911,-3.25808 -0.51784,-1.25693 -0.77631,-2.63432 -0.77631,-4.13173 0,-1.49741 0.2585,-2.87425 0.77631,-4.13163 0.51726,-1.25695 1.23402,-2.34315 2.14911,-3.25821 0.91509,-0.91506 1.99636,-1.63129 3.24437,-2.14897 1.24772,-0.51742 2.60176,-0.77647 4.0621,-0.77647 1.22031,0 2.44036,0.24045 3.66038,0.72093 1.22002,0.48091 2.26435,1.27556 3.1333,2.3848 l -1.74683,1.30326 c -0.20365,-0.31417 -0.48091,-0.62834 -0.83199,-0.94279 -0.35136,-0.31417 -0.7534,-0.5914 -1.20605,-0.83185 -0.45323,-0.24003 -0.93858,-0.43418 -1.45587,-0.58232 -0.51781,-0.14785 -1.03539,-0.22186 -1.55294,-0.22186 -1.25722,0 -2.38467,0.23138 -3.38283,0.69326 -0.9982,0.46228 -1.84388,1.08141 -2.53714,1.85772 -0.69324,0.77648 -1.22508,1.67773 -1.59465,2.70375 -0.36983,1.02587 -0.55446,2.10307 -0.55446,3.23038 0,1.12784 0.18463,2.20451 0.55449,3.23038 0.36954,1.02613 0.90138,1.92722 1.59462,2.70359 0.69323,0.7766 1.53894,1.39599 2.53714,1.85788 0.99816,0.46244 2.12561,0.69321 3.38283,0.69321 0.51755,0 1.03036,-0.0459 1.53897,-0.13846 0.50832,-0.0923 1.0074,-0.24956 1.49754,-0.47138 0.48959,-0.22186 0.95171,-0.52232 1.38647,-0.90139 0.43419,-0.37853 0.83622,-0.85468 1.20605,-1.4279 z"
       id="path134"
       style="fill:#234c57;fill-opacity:1;stroke-width:0.264583" />
    <clipPath
       id="SVGID_2_">
      <use
         xlink:href="#SVGID_1_"
         overflow="visible"
         id="use139" />
    </clipPath>
    <path
       clip-path="url(#SVGID_2_)"
       fill="#74cbcb"
       d="M 3.1017,4 2.7572,7.0493 V 4 Z"
       id="path142"
       transform="matrix(0.26458333,0,0,0.26458333,62.2488,129.66042)" />
    <path
       class="st2"
       d="M 3.557,4 2.7572,11.078 V 7.0493 L 3.1017,4 Z"
       clip-path="url(#SVGID_2_)"
       id="path144"
       transform="matrix(0.26458333,0,0,0.26458333,62.2488,129.66042)" />
    <path
       class="st2"
       d="M 4.0122,4 2.7572,15.1067 V 11.078 L 3.557,4 Z"
       clip-path="url(#SVGID_2_)"
       id="path146"
       transform="matrix(0.26458333,0,0,0.26458333,62.2488,129.66042)" />
    <path
       class="st3"
       d="M 4.4674,4 2.7572,19.1354 V 15.1067 L 4.0122,4 Z"
       clip-path="url(#SVGID_2_)"
       id="path148"
       transform="matrix(0.26458333,0,0,0.26458333,62.2488,129.66042)" />
    <path
       class="st3"
       d="M 4.9226,4 2.7572,23.1641 V 19.1354 L 4.4674,4 Z"
       clip-path="url(#SVGID_2_)"
       id="path150"
       transform="matrix(0.26458333,0,0,0.26458333,62.2488,129.66042)" />
    <path
       clip-path="url(#SVGID_2_)"
       fill="#71caca"
       d="M 5.3778,4 2.7572,27.1928 V 23.1641 L 4.9226,4 Z"
       id="path152"
       transform="matrix(0.26458333,0,0,0.26458333,62.2488,129.66042)" />
    <path
       class="st5"
       d="M 5.833,4 2.7572,31.2216 V 27.1928 L 5.3778,4 Z"
       clip-path="url(#SVGID_2_)"
       id="path154"
       transform="matrix(0.26458333,0,0,0.26458333,62.2488,129.66042)" />
    <path
       class="st5"
       d="M 6.2882,4 2.7572,35.2503 V 31.2216 L 5.833,4 Z"
       clip-path="url(#SVGID_2_)"
       id="path156"
       transform="matrix(0.26458333,0,0,0.26458333,62.2488,129.66042)" />
    <path
       clip-path="url(#SVGID_2_)"
       fill="#6fcac9"
       d="M 6.7434,4 2.7572,39.279 V 35.2503 L 6.2882,4 Z"
       id="path158"
       transform="matrix(0.26458333,0,0,0.26458333,62.2488,129.66042)" />
    <path
       clip-path="url(#SVGID_2_)"
       fill="#6ecac9"
       d="M 7.1986,4 2.8014,42.9162 2.7572,42.9112 V 39.279 L 6.7434,4 Z"
       id="path160"
       transform="matrix(0.26458333,0,0,0.26458333,62.2488,129.66042)" />
    <path
       class="st8"
       d="M 7.6538,4 3.2539,42.94 H 3.0125 L 2.8015,42.9162 7.1985,4 Z"
       clip-path="url(#SVGID_2_)"
       id="path162"
       transform="matrix(0.26458333,0,0,0.26458333,62.2488,129.66042)" />
    <path
       class="st8"
       d="M 8.109,4 3.7092,42.94 H 3.2539 L 7.6538,4 Z"
       clip-path="url(#SVGID_2_)"
       id="path164"
       transform="matrix(0.26458333,0,0,0.26458333,62.2488,129.66042)" />
    <path
       clip-path="url(#SVGID_2_)"
       fill="#6cc9c8"
       d="M 8.5642,4 4.1644,42.94 H 3.7092 L 8.109,4 Z"
       id="path166"
       transform="matrix(0.26458333,0,0,0.26458333,62.2488,129.66042)" />
    <path
       clip-path="url(#SVGID_2_)"
       fill="#6bc9c8"
       d="M 9.0194,4 4.6196,42.94 H 4.1644 L 8.5642,4 Z"
       id="path168"
       transform="matrix(0.26458333,0,0,0.26458333,62.2488,129.66042)" />
    <path
       clip-path="url(#SVGID_2_)"
       fill="#6ac9c8"
       d="M 9.4746,4 5.0748,42.94 H 4.6196 L 9.0194,4 Z"
       id="path170"
       transform="matrix(0.26458333,0,0,0.26458333,62.2488,129.66042)" />
    <path
       clip-path="url(#SVGID_2_)"
       fill="#69c8c8"
       d="M 9.9298,4 5.53,42.94 H 5.0748 L 9.4746,4 Z"
       id="path172"
       transform="matrix(0.26458333,0,0,0.26458333,62.2488,129.66042)" />
    <path
       clip-path="url(#SVGID_2_)"
       fill="#68c8c7"
       d="M 10.385,4 5.9852,42.94 H 5.53 L 9.9298,4 Z"
       id="path174"
       transform="matrix(0.26458333,0,0,0.26458333,62.2488,129.66042)" />
    <path
       clip-path="url(#SVGID_2_)"
       fill="#67c8c7"
       d="M 10.8402,4 6.4404,42.94 H 5.9852 L 10.385,4 Z"
       id="path176"
       transform="matrix(0.26458333,0,0,0.26458333,62.2488,129.66042)" />
    <path
       clip-path="url(#SVGID_2_)"
       fill="#66c7c7"
       d="M 11.2954,4 6.8956,42.94 H 6.4404 L 10.8402,4 Z"
       id="path178"
       transform="matrix(0.26458333,0,0,0.26458333,62.2488,129.66042)" />
    <path
       clip-path="url(#SVGID_2_)"
       fill="#65c7c6"
       d="M 11.7506,4 7.3508,42.94 H 6.8956 L 11.2954,4 Z"
       id="path180"
       transform="matrix(0.26458333,0,0,0.26458333,62.2488,129.66042)" />
    <path
       clip-path="url(#SVGID_2_)"
       fill="#64c7c6"
       d="M 12.2059,4 7.806,42.94 H 7.3508 L 11.7506,4 Z"
       id="path182"
       transform="matrix(0.26458333,0,0,0.26458333,62.2488,129.66042)" />
    <path
       clip-path="url(#SVGID_2_)"
       fill="#62c7c6"
       d="M 12.661,4 8.2613,42.94 H 7.806 L 12.2059,4 Z"
       id="path184"
       transform="matrix(0.26458333,0,0,0.26458333,62.2488,129.66042)" />
    <path
       clip-path="url(#SVGID_2_)"
       fill="#61c6c6"
       d="M 13.1163,4 8.7164,42.94 H 8.2612 L 12.6611,4 Z"
       id="path186"
       transform="matrix(0.26458333,0,0,0.26458333,62.2488,129.66042)" />
    <path
       clip-path="url(#SVGID_2_)"
       fill="#60c6c5"
       d="M 13.5715,4 9.1716,42.94 H 8.7164 L 13.1163,4 Z"
       id="path188"
       transform="matrix(0.26458333,0,0,0.26458333,62.2488,129.66042)" />
    <path
       clip-path="url(#SVGID_2_)"
       fill="#5ec6c5"
       d="M 14.0267,4 9.6268,42.94 H 9.1716 L 13.5715,4 Z"
       id="path190"
       transform="matrix(0.26458333,0,0,0.26458333,62.2488,129.66042)" />
    <path
       clip-path="url(#SVGID_2_)"
       fill="#5dc5c5"
       d="M 14.4819,4 10.082,42.94 H 9.6268 L 14.0267,4 Z"
       id="path192"
       transform="matrix(0.26458333,0,0,0.26458333,62.2488,129.66042)" />
    <path
       clip-path="url(#SVGID_2_)"
       fill="#5bc5c4"
       d="M 14.937,4 10.5372,42.94 H 10.082 L 14.482,4 Z"
       id="path194"
       transform="matrix(0.26458333,0,0,0.26458333,62.2488,129.66042)" />
    <path
       clip-path="url(#SVGID_2_)"
       fill="#5ac5c4"
       d="M 15.3923,4 10.9924,42.94 H 10.5372 L 14.9371,4 Z"
       id="path196"
       transform="matrix(0.26458333,0,0,0.26458333,62.2488,129.66042)" />
    <path
       clip-path="url(#SVGID_2_)"
       fill="#58c4c3"
       d="M 15.8475,4 11.4476,42.94 H 10.9924 L 15.3923,4 Z"
       id="path198"
       transform="matrix(0.26458333,0,0,0.26458333,62.2488,129.66042)" />
    <path
       clip-path="url(#SVGID_2_)"
       fill="#57c4c3"
       d="M 16.3027,4 11.9029,42.94 H 11.4476 L 15.8475,4 Z"
       id="path200"
       transform="matrix(0.26458333,0,0,0.26458333,62.2488,129.66042)" />
    <path
       clip-path="url(#SVGID_2_)"
       fill="#55c4c3"
       d="m 16.758,4 -4.4,38.94 H 11.9029 L 16.3027,4 Z"
       id="path202"
       transform="matrix(0.26458333,0,0,0.26458333,62.2488,129.66042)" />
    <path
       clip-path="url(#SVGID_2_)"
       fill="#53c3c2"
       d="M 17.2131,4 12.8133,42.94 H 12.3581 L 16.7579,4 Z"
       id="path204"
       transform="matrix(0.26458333,0,0,0.26458333,62.2488,129.66042)" />
    <path
       clip-path="url(#SVGID_2_)"
       fill="#51c3c2"
       d="M 17.6683,4 13.2685,42.94 H 12.8133 L 17.213,4 Z"
       id="path206"
       transform="matrix(0.26458333,0,0,0.26458333,62.2488,129.66042)" />
    <path
       clip-path="url(#SVGID_2_)"
       fill="#4fc3c1"
       d="M 18.1235,4 13.7237,42.94 H 13.2685 L 17.6683,4 Z"
       id="path208"
       transform="matrix(0.26458333,0,0,0.26458333,62.2488,129.66042)" />
    <path
       clip-path="url(#SVGID_2_)"
       fill="#4dc2c1"
       d="M 18.5787,4 14.179,42.94 H 13.7238 L 18.1235,4 Z"
       id="path210"
       transform="matrix(0.26458333,0,0,0.26458333,62.2488,129.66042)" />
    <path
       clip-path="url(#SVGID_2_)"
       fill="#4bc2c0"
       d="m 19.034,4 -4.4,38.94 H 14.1789 L 18.5787,4 Z"
       id="path212"
       transform="matrix(0.26458333,0,0,0.26458333,62.2488,129.66042)" />
    <path
       clip-path="url(#SVGID_2_)"
       fill="#49c1c0"
       d="M 19.4891,4 15.0893,42.94 H 14.6341 L 19.0339,4 Z"
       id="path214"
       transform="matrix(0.26458333,0,0,0.26458333,62.2488,129.66042)" />
    <path
       clip-path="url(#SVGID_2_)"
       fill="#46c1c0"
       d="M 19.9443,4 15.5445,42.94 H 15.0893 L 19.489,4 Z"
       id="path216"
       transform="matrix(0.26458333,0,0,0.26458333,62.2488,129.66042)" />
    <path
       clip-path="url(#SVGID_2_)"
       fill="#44c0bf"
       d="M 20.3996,4 15.9997,42.94 H 15.5445 L 19.9443,4 Z"
       id="path218"
       transform="matrix(0.26458333,0,0,0.26458333,62.2488,129.66042)" />
    <path
       clip-path="url(#SVGID_2_)"
       fill="#41c0bf"
       d="M 20.8548,4 16.4549,42.94 H 15.9997 L 20.3996,4 Z"
       id="path220"
       transform="matrix(0.26458333,0,0,0.26458333,62.2488,129.66042)" />
    <path
       clip-path="url(#SVGID_2_)"
       fill="#3ec0be"
       d="m 21.31,4 -4.4,38.94 H 16.4548 L 20.8548,4 Z"
       id="path222"
       transform="matrix(0.26458333,0,0,0.26458333,62.2488,129.66042)" />
    <path
       clip-path="url(#SVGID_2_)"
       fill="#3bbfbe"
       d="M 21.7652,4 17.3653,42.94 H 16.9101 L 21.31,4 Z"
       id="path224"
       transform="matrix(0.26458333,0,0,0.26458333,62.2488,129.66042)" />
    <path
       clip-path="url(#SVGID_2_)"
       fill="#38bfbd"
       d="M 22.2204,4 17.8205,42.94 H 17.3653 L 21.7652,4 Z"
       id="path226"
       transform="matrix(0.26458333,0,0,0.26458333,62.2488,129.66042)" />
    <path
       clip-path="url(#SVGID_2_)"
       fill="#34bebd"
       d="M 22.6756,4 18.2757,42.94 H 17.8205 L 22.2204,4 Z"
       id="path228"
       transform="matrix(0.26458333,0,0,0.26458333,62.2488,129.66042)" />
    <path
       clip-path="url(#SVGID_2_)"
       fill="#30bebc"
       d="M 23.1308,4 18.7309,42.94 H 18.2757 L 22.6756,4 Z"
       id="path230"
       transform="matrix(0.26458333,0,0,0.26458333,62.2488,129.66042)" />
    <path
       clip-path="url(#SVGID_2_)"
       fill="#2cbdbb"
       d="m 23.586,4 -4.4,38.94 H 18.7308 L 23.1308,4 Z"
       id="path232"
       transform="matrix(0.26458333,0,0,0.26458333,62.2488,129.66042)" />
    <path
       clip-path="url(#SVGID_2_)"
       fill="#27bdbb"
       d="M 24.0412,4 19.6413,42.94 H 19.1861 L 23.586,4 Z"
       id="path234"
       transform="matrix(0.26458333,0,0,0.26458333,62.2488,129.66042)" />
    <path
       clip-path="url(#SVGID_2_)"
       fill="#21bcba"
       d="M 24.4964,4 20.0965,42.94 H 19.6413 L 24.0412,4 Z"
       id="path236"
       transform="matrix(0.26458333,0,0,0.26458333,62.2488,129.66042)" />
    <path
       clip-path="url(#SVGID_2_)"
       fill="#1abcba"
       d="M 24.9516,4 20.5518,42.94 H 20.0965 L 24.4964,4 Z"
       id="path238"
       transform="matrix(0.26458333,0,0,0.26458333,62.2488,129.66042)" />
    <path
       clip-path="url(#SVGID_2_)"
       fill="#10bbb9"
       d="M 25.4068,4 21.007,42.94 H 20.5518 L 24.9516,4 Z"
       id="path240"
       transform="matrix(0.26458333,0,0,0.26458333,62.2488,129.66042)" />
    <path
       clip-path="url(#SVGID_2_)"
       fill="#00bbb9"
       d="M 25.862,4 21.4622,42.94 H 21.007 L 25.4068,4 Z"
       id="path242"
       transform="matrix(0.26458333,0,0,0.26458333,62.2488,129.66042)" />
    <path
       clip-path="url(#SVGID_2_)"
       fill="#00bab8"
       d="M 26.3172,4 21.9174,42.94 H 21.4622 L 25.862,4 Z"
       id="path244"
       transform="matrix(0.26458333,0,0,0.26458333,62.2488,129.66042)" />
    <path
       clip-path="url(#SVGID_2_)"
       fill="#00bab7"
       d="M 26.7724,4 22.3726,42.94 H 21.9174 L 26.3172,4 Z"
       id="path246"
       transform="matrix(0.26458333,0,0,0.26458333,62.2488,129.66042)" />
    <path
       clip-path="url(#SVGID_2_)"
       fill="#00b9b7"
       d="M 27.2276,4 22.8278,42.94 H 22.3726 L 26.7724,4 Z"
       id="path248"
       transform="matrix(0.26458333,0,0,0.26458333,62.2488,129.66042)" />
    <path
       clip-path="url(#SVGID_2_)"
       fill="#00b9b6"
       d="M 27.6828,4 23.283,42.94 H 22.8278 L 27.2276,4 Z"
       id="path250"
       transform="matrix(0.26458333,0,0,0.26458333,62.2488,129.66042)" />
    <path
       clip-path="url(#SVGID_2_)"
       fill="#00b8b6"
       d="M 28.138,4 23.7382,42.94 H 23.283 L 27.6828,4 Z"
       id="path252"
       transform="matrix(0.26458333,0,0,0.26458333,62.2488,129.66042)" />
    <path
       clip-path="url(#SVGID_2_)"
       fill="#00b7b5"
       d="M 28.5932,4 24.1934,42.94 H 23.7382 L 28.138,4 Z"
       id="path254"
       transform="matrix(0.26458333,0,0,0.26458333,62.2488,129.66042)" />
    <path
       clip-path="url(#SVGID_2_)"
       fill="#00b7b4"
       d="M 29.0485,4 24.6486,42.94 H 24.1934 L 28.5932,4 Z"
       id="path256"
       transform="matrix(0.26458333,0,0,0.26458333,62.2488,129.66042)" />
    <path
       clip-path="url(#SVGID_2_)"
       fill="#00b6b4"
       d="M 29.5037,4 25.1038,42.94 H 24.6486 L 29.0485,4 Z"
       id="path258"
       transform="matrix(0.26458333,0,0,0.26458333,62.2488,129.66042)" />
    <path
       clip-path="url(#SVGID_2_)"
       fill="#00b6b3"
       d="M 29.9589,4 25.559,42.94 H 25.1038 L 29.5037,4 Z"
       id="path260"
       transform="matrix(0.26458333,0,0,0.26458333,62.2488,129.66042)" />
    <path
       class="st57"
       d="M 30.414,4 26.0142,42.94 H 25.559 L 29.959,4 Z"
       clip-path="url(#SVGID_2_)"
       id="path262"
       transform="matrix(0.26458333,0,0,0.26458333,62.2488,129.66042)" />
    <path
       class="st57"
       d="M 30.8693,4 26.4694,42.94 H 26.0142 L 30.4141,4 Z"
       clip-path="url(#SVGID_2_)"
       id="path264"
       transform="matrix(0.26458333,0,0,0.26458333,62.2488,129.66042)" />
    <path
       clip-path="url(#SVGID_2_)"
       fill="#00b4b1"
       d="M 31.3245,4 26.9246,42.94 H 26.4694 L 30.8693,4 Z"
       id="path266"
       transform="matrix(0.26458333,0,0,0.26458333,62.2488,129.66042)" />
    <path
       class="st59"
       d="M 31.7797,4 27.3798,42.94 H 26.9246 L 31.3245,4 Z"
       clip-path="url(#SVGID_2_)"
       id="path268"
       transform="matrix(0.26458333,0,0,0.26458333,62.2488,129.66042)" />
    <path
       class="st59"
       d="M 32.2349,4 27.835,42.94 H 27.3798 L 31.7797,4 Z"
       clip-path="url(#SVGID_2_)"
       id="path270"
       transform="matrix(0.26458333,0,0,0.26458333,62.2488,129.66042)" />
    <path
       clip-path="url(#SVGID_2_)"
       fill="#00b2af"
       d="M 32.6901,4 28.2902,42.94 H 27.835 L 32.235,4 Z"
       id="path272"
       transform="matrix(0.26458333,0,0,0.26458333,62.2488,129.66042)" />
    <path
       clip-path="url(#SVGID_2_)"
       fill="#00b2ae"
       d="M 33.1453,4 28.7455,42.94 H 28.2902 L 32.6901,4 Z"
       id="path274"
       transform="matrix(0.26458333,0,0,0.26458333,62.2488,129.66042)" />
    <path
       clip-path="url(#SVGID_2_)"
       fill="#00b1ad"
       d="M 33.6005,4 29.2007,42.94 H 28.7455 L 33.1453,4 Z"
       id="path276"
       transform="matrix(0.26458333,0,0,0.26458333,62.2488,129.66042)" />
    <path
       class="st63"
       d="M 34.0557,4 29.656,42.94 H 29.2008 L 33.6005,4 Z"
       clip-path="url(#SVGID_2_)"
       id="path278"
       transform="matrix(0.26458333,0,0,0.26458333,62.2488,129.66042)" />
    <path
       class="st63"
       d="m 41.442,4 0.2553,0.0288 V 42.9401 H 29.6559 L 34.0557,4 Z"
       clip-path="url(#SVGID_2_)"
       id="path280"
       transform="matrix(0.26458333,0,0,0.26458333,62.2488,129.66042)" />
    <g
       id="g434"
       transform="matrix(0.26458333,0,0,0.26458333,62.2488,129.66042)">
      <defs
         id="defs283" />
      <clipPath
         id="SVGID_4_">
        <use
           xlink:href="#SVGID_3_"
           overflow="visible"
           id="use285" />
      </clipPath>
      <path
         clip-path="url(#SVGID_4_)"
         fill="#74cbcb"
         d="m 86.8535,18.4911 -0.3107,-6.6715 h 0.3107 z"
         id="path288" />
      <path
         clip-path="url(#SVGID_4_)"
         fill="#73cbcb"
         d="M 86.8535,25.5011 86.2163,11.8196 h 0.3265 l 0.3107,6.6715 z"
         id="path290" />
      <path
         clip-path="url(#SVGID_4_)"
         fill="#73cbca"
         d="M 86.8535,32.5111 85.8898,11.8196 h 0.3265 l 0.6372,13.6815 z"
         id="path292" />
      <path
         clip-path="url(#SVGID_4_)"
         fill="#72cbca"
         d="M 86.6271,34.6602 85.5633,11.8196 h 0.3265 l 0.9637,20.6915 v 2.1491 z"
         id="path294" />
      <path
         clip-path="url(#SVGID_4_)"
         fill="#71caca"
         d="M 86.3006,34.6602 85.2368,11.8196 h 0.3265 l 1.0638,22.8406 z"
         id="path296" />
      <path
         clip-path="url(#SVGID_4_)"
         fill="#70caca"
         d="M 85.9741,34.6602 84.9103,11.8196 h 0.3265 l 1.0638,22.8406 z"
         id="path298" />
      <path
         class="st70"
         d="M 85.6476,34.6602 84.5838,11.8196 h 0.3265 l 1.0638,22.8406 z"
         clip-path="url(#SVGID_4_)"
         id="path300" />
      <path
         class="st70"
         d="M 85.3211,34.6602 84.2573,11.8196 h 0.3265 l 1.0638,22.8406 z"
         clip-path="url(#SVGID_4_)"
         id="path302" />
      <path
         clip-path="url(#SVGID_4_)"
         fill="#6ec9c9"
         d="M 84.9946,34.6602 83.9308,11.8196 h 0.3265 l 1.0638,22.8406 z"
         id="path304" />
      <path
         clip-path="url(#SVGID_4_)"
         fill="#6dc9c9"
         d="M 84.6681,34.6602 83.6043,11.8196 h 0.3265 l 1.0638,22.8406 z"
         id="path306" />
      <path
         clip-path="url(#SVGID_4_)"
         fill="#6cc9c8"
         d="M 84.3416,34.6602 83.2778,11.8196 h 0.3265 l 1.0638,22.8406 z"
         id="path308" />
      <path
         clip-path="url(#SVGID_4_)"
         fill="#6bc9c8"
         d="M 84.0151,34.6602 82.9513,11.8196 h 0.3265 l 1.0638,22.8406 z"
         id="path310" />
      <path
         clip-path="url(#SVGID_4_)"
         fill="#6ac8c8"
         d="M 83.6886,34.6602 82.6248,11.8196 h 0.3265 l 1.0638,22.8406 z"
         id="path312" />
      <path
         clip-path="url(#SVGID_4_)"
         fill="#69c8c8"
         d="M 83.3621,34.6602 82.2983,11.8196 h 0.3265 l 1.0638,22.8406 z"
         id="path314" />
      <path
         clip-path="url(#SVGID_4_)"
         fill="#68c8c7"
         d="M 83.0356,34.6602 81.9718,11.8196 h 0.3265 l 1.0638,22.8406 z"
         id="path316" />
      <path
         clip-path="url(#SVGID_4_)"
         fill="#67c8c7"
         d="M 82.709,34.6602 81.6453,11.8196 h 0.3265 l 1.0638,22.8406 z"
         id="path318" />
      <path
         clip-path="url(#SVGID_4_)"
         fill="#66c7c7"
         d="M 82.3826,34.6602 81.3188,11.8196 h 0.3265 l 1.0638,22.8406 z"
         id="path320" />
      <path
         clip-path="url(#SVGID_4_)"
         fill="#65c7c6"
         d="M 82.056,34.6602 80.9923,11.8196 h 0.3265 l 1.0638,22.8406 z"
         id="path322" />
      <path
         clip-path="url(#SVGID_4_)"
         fill="#63c7c6"
         d="M 81.7296,34.6602 80.6657,11.8196 h 0.3266 l 1.0638,22.8406 z"
         id="path324" />
      <path
         clip-path="url(#SVGID_4_)"
         fill="#62c7c6"
         d="M 81.403,34.6602 80.3392,11.8196 h 0.3265 l 1.0639,22.8406 z"
         id="path326" />
      <path
         clip-path="url(#SVGID_4_)"
         fill="#61c6c6"
         d="M 81.0766,34.6602 80.0127,11.8196 h 0.3265 l 1.0639,22.8406 z"
         id="path328" />
      <path
         clip-path="url(#SVGID_4_)"
         fill="#60c6c5"
         d="M 80.75,34.6602 79.6862,11.8196 h 0.3265 l 1.0639,22.8406 z"
         id="path330" />
      <path
         clip-path="url(#SVGID_4_)"
         fill="#5fc6c5"
         d="M 80.4236,34.6602 79.3597,11.8196 h 0.3265 l 1.0639,22.8406 z"
         id="path332" />
      <path
         clip-path="url(#SVGID_4_)"
         fill="#5dc5c5"
         d="M 80.097,34.6602 79.0332,11.8196 h 0.3265 l 1.0639,22.8406 z"
         id="path334" />
      <path
         clip-path="url(#SVGID_4_)"
         fill="#5cc5c4"
         d="M 79.7706,34.6602 78.7067,11.8196 h 0.3265 l 1.0639,22.8406 z"
         id="path336" />
      <path
         clip-path="url(#SVGID_4_)"
         fill="#5bc5c4"
         d="M 79.444,34.6602 78.3802,11.8196 h 0.3265 l 1.0639,22.8406 z"
         id="path338" />
      <path
         clip-path="url(#SVGID_4_)"
         fill="#59c5c4"
         d="M 79.1176,34.6602 78.0537,11.8196 h 0.3265 l 1.0639,22.8406 z"
         id="path340" />
      <path
         clip-path="url(#SVGID_4_)"
         fill="#58c4c3"
         d="M 78.791,34.6602 77.7272,11.8196 h 0.3265 l 1.0639,22.8406 z"
         id="path342" />
      <path
         clip-path="url(#SVGID_4_)"
         fill="#57c4c3"
         d="M 78.4646,34.6602 77.4007,11.8196 h 0.3265 l 1.0639,22.8406 z"
         id="path344" />
      <path
         clip-path="url(#SVGID_4_)"
         fill="#55c4c3"
         d="M 78.138,34.6602 77.0742,11.8196 h 0.3265 l 1.0639,22.8406 z"
         id="path346" />
      <path
         clip-path="url(#SVGID_4_)"
         fill="#54c3c2"
         d="M 77.8116,34.6602 76.7477,11.8196 h 0.3265 l 1.0639,22.8406 z"
         id="path348" />
      <path
         clip-path="url(#SVGID_4_)"
         fill="#52c3c2"
         d="M 77.485,34.6602 76.4212,11.8196 h 0.3265 l 1.0639,22.8406 z"
         id="path350" />
      <path
         clip-path="url(#SVGID_4_)"
         fill="#50c3c2"
         d="M 77.1586,34.6602 76.0947,11.8196 h 0.3265 l 1.0639,22.8406 z"
         id="path352" />
      <path
         clip-path="url(#SVGID_4_)"
         fill="#4fc2c1"
         d="M 76.832,34.6602 75.7682,11.8196 h 0.3265 l 1.0639,22.8406 z"
         id="path354" />
      <path
         clip-path="url(#SVGID_4_)"
         fill="#4dc2c1"
         d="M 76.5056,34.6602 75.4417,11.8196 h 0.3265 l 1.0639,22.8406 z"
         id="path356" />
      <path
         clip-path="url(#SVGID_4_)"
         fill="#4bc2c1"
         d="M 76.179,34.6602 75.1152,11.8196 h 0.3265 l 1.0639,22.8406 z"
         id="path358" />
      <path
         clip-path="url(#SVGID_4_)"
         fill="#4ac1c0"
         d="M 75.8526,34.6602 74.7887,11.8196 h 0.3265 l 1.0639,22.8406 z"
         id="path360" />
      <path
         clip-path="url(#SVGID_4_)"
         fill="#48c1c0"
         d="M 75.526,34.6602 74.4622,11.8196 h 0.3265 l 1.0639,22.8406 z"
         id="path362" />
      <path
         clip-path="url(#SVGID_4_)"
         fill="#46c1c0"
         d="M 75.1996,34.6602 74.1357,11.8196 h 0.3265 l 1.0639,22.8406 z"
         id="path364" />
      <path
         clip-path="url(#SVGID_4_)"
         fill="#44c1bf"
         d="M 74.873,34.6602 73.8092,11.8196 h 0.3265 l 1.0639,22.8406 z"
         id="path366" />
      <path
         clip-path="url(#SVGID_4_)"
         fill="#42c0bf"
         d="M 74.5466,34.6602 73.4827,11.8196 h 0.3265 l 1.0639,22.8406 z"
         id="path368" />
      <path
         clip-path="url(#SVGID_4_)"
         fill="#40c0be"
         d="M 74.22,34.6602 73.1562,11.8196 h 0.3265 l 1.0639,22.8406 z"
         id="path370" />
      <path
         clip-path="url(#SVGID_4_)"
         fill="#3ec0be"
         d="M 73.8936,34.6602 72.8297,11.8196 h 0.3265 l 1.0639,22.8406 z"
         id="path372" />
      <path
         clip-path="url(#SVGID_4_)"
         fill="#3cbfbe"
         d="M 73.567,34.6602 72.5032,11.8196 h 0.3265 l 1.0639,22.8406 z"
         id="path374" />
      <path
         clip-path="url(#SVGID_4_)"
         fill="#39bfbd"
         d="M 73.2406,34.6602 72.1767,11.8196 h 0.3265 l 1.0639,22.8406 z"
         id="path376" />
      <path
         clip-path="url(#SVGID_4_)"
         fill="#37bfbd"
         d="M 72.914,34.6602 71.8502,11.8196 h 0.3265 l 1.0639,22.8406 z"
         id="path378" />
      <path
         clip-path="url(#SVGID_4_)"
         fill="#34bebd"
         d="M 72.5875,34.6602 71.5237,11.8196 h 0.3265 l 1.0638,22.8406 z"
         id="path380" />
      <path
         clip-path="url(#SVGID_4_)"
         fill="#32bebc"
         d="M 72.261,34.6602 71.1972,11.8196 h 0.3265 l 1.0638,22.8406 z"
         id="path382" />
      <path
         clip-path="url(#SVGID_4_)"
         fill="#2fbdbc"
         d="M 71.9345,34.6602 70.8707,11.8196 h 0.3265 l 1.0638,22.8406 z"
         id="path384" />
      <path
         clip-path="url(#SVGID_4_)"
         fill="#2cbdbb"
         d="M 71.608,34.6602 70.5442,11.8196 h 0.3265 l 1.0638,22.8406 z"
         id="path386" />
      <path
         clip-path="url(#SVGID_4_)"
         fill="#28bdbb"
         d="M 71.2815,34.6602 70.2177,11.8196 h 0.3265 l 1.0638,22.8406 z"
         id="path388" />
      <path
         clip-path="url(#SVGID_4_)"
         fill="#25bcbb"
         d="M 70.955,34.6602 69.8912,11.8196 h 0.3265 l 1.0638,22.8406 z"
         id="path390" />
      <path
         clip-path="url(#SVGID_4_)"
         fill="#21bcba"
         d="M 70.6285,34.6602 69.5647,11.8196 h 0.3265 l 1.0638,22.8406 z"
         id="path392" />
      <path
         clip-path="url(#SVGID_4_)"
         fill="#1cbcba"
         d="M 70.302,34.6602 69.2382,11.8196 h 0.3265 l 1.0638,22.8406 z"
         id="path394" />
      <path
         clip-path="url(#SVGID_4_)"
         fill="#16bbba"
         d="M 69.9755,34.6602 68.9117,11.8196 h 0.3265 l 1.0638,22.8406 z"
         id="path396" />
      <path
         clip-path="url(#SVGID_4_)"
         fill="#0fbbb9"
         d="M 69.649,34.6602 68.5852,11.8196 h 0.3265 l 1.0638,22.8406 z"
         id="path398" />
      <path
         clip-path="url(#SVGID_4_)"
         fill="#04bbb9"
         d="M 69.3225,34.6602 68.2587,11.8196 h 0.3265 l 1.0638,22.8406 z"
         id="path400" />
      <path
         class="st120"
         d="M 68.996,34.6602 67.9322,11.8196 h 0.3265 l 1.0638,22.8406 z"
         clip-path="url(#SVGID_4_)"
         id="path402" />
      <path
         class="st120"
         d="M 68.6695,34.6602 67.6057,11.8196 h 0.3265 l 1.0638,22.8406 z"
         clip-path="url(#SVGID_4_)"
         id="path404" />
      <path
         class="st120"
         d="M 68.343,34.6602 67.2792,11.8196 h 0.3265 l 1.0638,22.8406 z"
         clip-path="url(#SVGID_4_)"
         id="path406" />
      <path
         class="st121"
         d="M 68.0165,34.6602 66.9527,11.8196 h 0.3265 l 1.0638,22.8406 z"
         clip-path="url(#SVGID_4_)"
         id="path408" />
      <path
         class="st121"
         d="M 67.69,34.6602 66.6262,11.8196 h 0.3265 l 1.0638,22.8406 z"
         clip-path="url(#SVGID_4_)"
         id="path410" />
      <path
         clip-path="url(#SVGID_4_)"
         fill="#00b9b6"
         d="M 67.3635,34.6602 66.2997,11.8196 h 0.3265 L 67.69,34.6602 Z"
         id="path412" />
      <path
         class="st123"
         d="M 67.037,34.6602 65.9732,11.8196 h 0.3265 l 1.0638,22.8406 z m -0.3265,0 -1.0638,-22.8406 h 0.3265 l 1.0638,22.8406 z"
         clip-path="url(#SVGID_4_)"
         id="path414" />
      <path
         clip-path="url(#SVGID_4_)"
         fill="#00b8b5"
         d="M 66.384,34.6602 65.3202,11.8196 h 0.3265 l 1.0638,22.8406 z"
         id="path416" />
      <path
         clip-path="url(#SVGID_4_)"
         fill="#00b7b5"
         d="M 66.0575,34.6602 64.9937,11.8196 h 0.3265 l 1.0638,22.8406 z"
         id="path418" />
      <path
         class="st126"
         d="M 65.731,34.6602 64.6672,11.8196 h 0.3265 l 1.0638,22.8406 z"
         clip-path="url(#SVGID_4_)"
         id="path420" />
      <path
         class="st126"
         d="M 65.4045,34.6602 64.3407,11.8196 h 0.3265 l 1.0638,22.8406 z"
         clip-path="url(#SVGID_4_)"
         id="path422" />
      <path
         clip-path="url(#SVGID_4_)"
         fill="#00b6b4"
         d="M 65.078,34.6602 64.0142,11.8196 h 0.3265 l 1.0638,22.8406 z"
         id="path424" />
      <path
         class="st128"
         d="M 64.7515,34.6602 64.013,18.802 v -6.9823 h 0.0013 l 1.0638,22.8406 z"
         clip-path="url(#SVGID_4_)"
         id="path426" />
      <path
         class="st128"
         d="m 64.425,34.6602 -0.4121,-8.8483 v -7.01 l 0.7386,15.8583 z"
         clip-path="url(#SVGID_4_)"
         id="path428" />
      <path
         class="st129"
         d="m 64.0985,34.6602 -0.0856,-1.8383 v -7.01 l 0.4121,8.8483 z"
         clip-path="url(#SVGID_4_)"
         id="path430" />
      <path
         class="st129"
         d="m 64.0129,32.8219 0.0856,1.8383 h -0.0856 z"
         clip-path="url(#SVGID_4_)"
         id="path432" />
    </g>
    <g
       id="g438"
       transform="matrix(0.26458333,0,0,0.26458333,62.2488,129.66042)"
       style="fill:#234c57;fill-opacity:1;stroke-width:1.00157;stroke-dasharray:none">
      <path
         class="st0"
         d="M 23.0105,11.6979 11.2639,23.5324 23.0981,35.2792 33.1096,35.242 22.6114,24.8275 l 51.842,-0.1923 -4.5437,4.5747 5.0057,-0.0186 5.8734,-5.9171 -5.917,-5.8733 -5.0057,0.0186 4.5776,4.5412 -51.8418,0.1922 10.4203,-10.492 z"
         id="path436"
         style="fill:#234c57;fill-opacity:1;stroke-width:1.00157;stroke-dasharray:none" />
    </g>
  </g>
</svg>
